<?xml version="1.0" encoding="UTF-8" standalone="no"?>
<!-- Created with Inkscape (http://www.inkscape.org/) -->

<svg
   xmlns:osb="http://www.openswatchbook.org/uri/2009/osb"
   xmlns:dc="http://purl.org/dc/elements/1.1/"
   xmlns:cc="http://creativecommons.org/ns#"
   xmlns:rdf="http://www.w3.org/1999/02/22-rdf-syntax-ns#"
   xmlns:svg="http://www.w3.org/2000/svg"
   xmlns="http://www.w3.org/2000/svg"
   xmlns:sodipodi="http://sodipodi.sourceforge.net/DTD/sodipodi-0.dtd"
   xmlns:inkscape="http://www.inkscape.org/namespaces/inkscape"
   width="500"
   height="500"
   id="svg2"
   version="1.1"
   inkscape:version="0.92.2 (5c3e80d, 2017-08-06)"
   sodipodi:docname="mark5.svg"
   inkscape:export-filename="mark5.png"
   inkscape:export-xdpi="96"
   inkscape:export-ydpi="96">
  <defs
     id="defs4">
    <linearGradient
       id="linearGradient3786"
       osb:paint="gradient">
      <stop
         style="stop-color:#ffff00;stop-opacity:1;"
         offset="0"
         id="stop3788" />
      <stop
         style="stop-color:#ffff00;stop-opacity:0;"
         offset="1"
         id="stop3790" />
    </linearGradient>
  </defs>
  <sodipodi:namedview
     id="base"
     pagecolor="#ffffff"
     bordercolor="#666666"
     borderopacity="1.0"
     inkscape:pageopacity="0.0"
     inkscape:pageshadow="2"
     inkscape:zoom="1.28"
     inkscape:cx="168.13509"
     inkscape:cy="279.89715"
     inkscape:document-units="px"
     inkscape:current-layer="layer1"
     showgrid="true"
     inkscape:snap-grids="false"
     inkscape:window-width="1434"
     inkscape:window-height="880"
     inkscape:window-x="236"
     inkscape:window-y="133"
     inkscape:window-maximized="0"
     showguides="true"
     inkscape:guide-bbox="true"
     inkscape:snap-bbox="true"
     inkscape:bbox-nodes="false"
     inkscape:snap-bbox-edge-midpoints="false"
     inkscape:object-paths="false"
     inkscape:snap-intersection-paths="true"
     inkscape:object-nodes="false"
     inkscape:snap-smooth-nodes="false"
     inkscape:snap-midpoints="false"
     inkscape:snap-object-midpoints="false"
     inkscape:snap-nodes="false"
     inkscape:snap-global="true"
     inkscape:snap-center="false"
     inkscape:snap-to-guides="false">
    <inkscape:grid
       type="xygrid"
       id="grid3089"
       empspacing="5"
       visible="true"
       enabled="true"
       snapvisiblegridlinesonly="true" />
  </sodipodi:namedview>
  <metadata
     id="metadata7">
    <rdf:RDF>
      <cc:Work
         rdf:about="">
        <dc:format>image/svg+xml</dc:format>
        <dc:type
           rdf:resource="http://purl.org/dc/dcmitype/StillImage" />
        <dc:title></dc:title>
      </cc:Work>
    </rdf:RDF>
  </metadata>
  <g
     inkscape:label="Layer 1"
     inkscape:groupmode="layer"
     id="layer1"
     transform="translate(0,-552.36182)"
     style="display:inline">
    <ellipse
       style="opacity:1;fill:#000000;fill-opacity:1;stroke:none;stroke-width:4;stroke-linecap:round;stroke-linejoin:round;stroke-miterlimit:4;stroke-dasharray:none;stroke-dashoffset:0;stroke-opacity:0.92519681;paint-order:normal"
       id="path4547"
       cx="250"
       cy="800.79932"
       rx="250"
       ry="248.4375" />
    <rect
       style="fill:#998246;fill-opacity:1;fill-rule:nonzero;stroke:none;stroke-width:0.62418759;stroke-opacity:1"
       id="rect3907-6"
       width="318.97482"
       height="319.10486"
       x="586.01874"
       y="252.01503"
       rx="20.634832"
       ry="24.008444"
       transform="matrix(0.72701961,0.68661669,-0.70817438,0.70603756,0,0)" />
    <flowRoot
       xml:space="preserve"
       id="flowRoot3006"
       style="font-style:normal;font-weight:normal;line-height:0.01%;font-family:sans-serif;letter-spacing:0px;word-spacing:0px;fill:#000000;fill-opacity:1;stroke:none"
       transform="matrix(0.606171,0,0,0.606171,-4.659484,385.25343)"><flowRegion
         id="flowRegion3008"
         style="font-family:sans-serif"><rect
           id="rect3010"
           width="27.142857"
           height="50"
           x="168.57143"
           y="670.93359"
           style="font-family:sans-serif" /></flowRegion><flowPara
         id="flowPara3012"
         style="font-size:40px;line-height:1.25;font-family:sans-serif"> </flowPara></flowRoot>    <g
       id="g3971"
       transform="matrix(0.60281167,0,0,0.58841085,-25.386931,402.85584)">
      <rect
         transform="matrix(0.71525946,0.698859,-0.69607863,0.71796556,0,0)"
         ry="38.481194"
         rx="33.043503"
         y="-90.320862"
         x="545.05463"
         height="511.46744"
         width="510.78897"
         id="rect3907"
         style="fill:#000000;fill-opacity:1;fill-rule:nonzero;stroke:none" />
      <g
         id="g3934">
        <rect
           style="fill:#fecc00;fill-opacity:1;fill-rule:nonzero;stroke:none"
           id="rect3911"
           width="461.37881"
           height="455.14954"
           x="-390.41376"
           y="575.97162"
           rx="23.865061"
           ry="27.34059"
           transform="matrix(0.709683,-0.70452115,0.71027898,0.70392029,0,0)" />
        <text
           xml:space="preserve"
           style="font-style:normal;font-variant:normal;font-weight:normal;font-stretch:normal;line-height:0%;font-family:UnDinaru;-inkscape-font-specification:UnDinaru;letter-spacing:0px;word-spacing:0px;fill:#000000;fill-opacity:1;stroke:none"
           x="-395.09012"
           y="609.64899"
           id="text2991"
           transform="matrix(0.61933718,-0.62448636,0.79503782,0.81298159,0,0)"><tspan
             sodipodi:role="line"
             id="tspan2993"
             x="-395.09012"
             y="609.64899"
             style="font-style:normal;font-variant:normal;font-weight:bold;font-stretch:normal;font-size:141.94515991px;line-height:1.25;font-family:FreeMono;-inkscape-font-specification:'FreeMono Bold'">keva</tspan></text>
        <g
           id="g4260"
           transform="matrix(1.3755622,0,0,1.4001564,-297.36967,-244.97283)">
          <path
             id="path3939"
             style="fill:#ffffff;stroke:#000000;stroke-width:5.28543806;stroke-linejoin:round"
             d="m 637.853,638.49012 v 0 l 35.77799,-33.75228 c 6.92397,-5.67386 9.07467,-0.65786 15.55404,-3.90507 5.16954,-1.37519 8.95146,-4.9478 7.36663,-10.87718 -3.59557,-4.11384 -6.65301,-6.50986 -12.30433,-10.56968 -0.89941,-5.6388 -2.82675,-10.78818 -5.64769,-15.71264 -2.43163,-2.70774 -5.93412,-3.29482 -9.60816,3.56951 -3.95877,5.77801 -1.16706,11.48224 -6.01762,19.33595 -8.76923,8.60622 -16.77897,16.32774 -26.48626,25.86404 l -77.06429,57.08212 c -8.471,8.83998 -16.13772,17.0148 -26.26337,25.11296 -8.54915,5.07869 -9.59855,-1.91102 -19.75494,5.423 -2.52972,3.87606 -1.57196,8.26511 1.66422,10.92488 3.71336,2.8492 6.26332,4.60129 9.52927,7.09955 1.7626,4.34157 2.67495,8.20205 4.25943,13.51425 3.15025,6.23154 7.00846,4.87691 9.74646,0.7945 1.02571,-2.64982 2.45414,-5.16889 3.07722,-7.94898 0.87588,-3.69218 1.84056,-7.86986 3.29772,-11.47668 l 23.40301,-24.39536 z"
             inkscape:connector-curvature="0" />
          <path
             id="path3937"
             style="fill:#ffffff;stroke:#000000;stroke-width:5.28543806;stroke-linejoin:round"
             d="m 647.57804,700.12454 v 0 l 22.8392,24.47371 c 4.61092,8.33749 1.61439,12.1239 4.96973,17.42582 3.08355,5.95369 5.7207,7.5751 9.75492,4.10825 3.6751,-4.24038 4.78656,-9.27029 7.12321,-14.36407 4.14527,-2.32904 7.23624,-3.21687 10.83254,-5.71496 3.88266,-2.5574 4.83481,-6.01725 1.25974,-9.76715 -3.09555,-2.7193 -6.26041,-4.57746 -11.03673,-4.50302 -3.04218,0.0935 -6.14039,-0.2719 -9.27554,-3.0771 l -25.22642,-24.54703 -75.15687,-58.8269 c -9.54354,-9.7038 -17.63633,-17.24365 -26.82712,-27.61892 -4.47303,-7.30969 -0.56484,-12.81893 -6.46702,-20.09993 -2.71403,-2.81284 -4.83452,-4.35045 -9.0023,-0.27453 -3.05451,3.84707 -4.38537,8.53625 -6.06019,12.96413 -4.02274,2.55931 -7.9871,3.5764 -11.7603,7.14964 -5.43349,5.09147 -0.76551,8.76645 1.84467,10.40288 7.41389,4.72849 11.6155,1.59954 18.56073,5.55952 12.20585,11.92851 24.45128,24.18104 36.0943,36.09213 z"
             inkscape:connector-curvature="0" />
          <g
             transform="matrix(0.9037338,0,0,0.76340273,57.264644,134.72067)"
             id="g4232">
            <path
               inkscape:connector-curvature="0"
               d="m 558.55852,672.949 c -7.45119,-7.6929 -12.65877,-21.04372 -13.38146,-35.46103 -0.7846,-15.88783 7.09374,-31.66404 18.89938,-40.65794 13.22687,-9.88726 35.34253,-12.62177 49.0939,-11.88382 9.31438,0.007 30.06253,5.13612 37.3864,10.92864 12.84723,9.92063 19.73693,24.00129 20.21431,40.05039 0.70595,16.12064 -5.68729,28.39917 -13.51579,36.0623"
               style="fill:#ffffff;stroke:#000000;stroke-width:5.28543806"
               id="path3941" />
            <path
               inkscape:connector-curvature="0"
               d="m 559.29913,670.23583 c 0,0 -9.00638,28.9595 8.34832,33.89705 l 6.32744,38.73122 c 6.67788,30.48543 60.12039,30.50611 67.98588,0 l 6.32744,-38.73122 c 17.7947,-5.04506 8.76107,-33.90946 8.76107,-33.90946 z"
               style="fill:#ffffff"
               id="path3943" />
            <path
               inkscape:connector-curvature="0"
               d="m 559.01176,627.75264 c -3.01848,2.80456 -2.63766,7.0205 -2.09409,13.31236 0.4291,4.78041 3.30117,9.48597 3.45225,13.85326 1.056,9.21552 -1.50924,18.43103 -2.71671,25.9639 -0.83016,8.65435 1.50963,16.10699 4.52772,18.99177 3.01809,2.84509 6.91385,4.02324 11.00701,5.34943 3.71898,1.033 5.64758,2.82937 8.46047,5.05664 3.35101,3.77843 4.15041,6.90347 4.07487,10.75013"
               style="fill:none;stroke:#000000;stroke-width:5.28543806"
               id="path3945" />
            <path
               inkscape:connector-curvature="0"
               d="m 657.291,627.51222 c 3.01848,2.80456 2.63767,7.0205 2.09409,13.31236 -0.4291,4.78041 -3.30117,9.48597 -3.45225,13.85325 -1.056,9.21553 1.50924,18.43104 2.71671,25.9639 0.83016,8.65436 -1.50963,16.107 -4.52772,18.99178 -3.01809,2.84509 -8.54185,4.37308 -11.00702,5.34943 -2.87245,1.06732 -5.80956,3.0014 -8.46046,5.22867 -3.18903,3.26193 -4.15041,6.73144 -4.07487,10.5781"
               style="fill:none;stroke:#000000;stroke-width:5.28543806"
               id="path3947" />
            <path
               inkscape:connector-curvature="0"
               d="m 567.64005,704.12833 c 2.70152,6.94317 5.56503,13.71431 5.83526,20.82951 -1.24251,5.73814 -0.86443,12.50929 0.48634,17.90337 1.72924,7.40219 8.48304,16.18142 15.23725,19.10796 6.91579,2.66811 11.2383,3.35706 18.9644,3.35706"
               style="fill:none;stroke:#000000;stroke-width:5.28543806"
               id="path3949" />
            <path
               inkscape:connector-curvature="0"
               d="m 648.28151,704.12832 c -2.70153,6.94317 -5.56503,13.71431 -5.83526,20.82951 1.24251,5.73814 0.86442,12.50928 -0.48634,17.90337 -1.72924,7.40219 -8.56404,15.92337 -15.31824,18.84995 -6.75381,2.92654 -11.07593,3.61508 -18.80242,3.61508"
               style="fill:none;stroke:#000000;stroke-width:5.28543806"
               id="path3951" />
            <path
               inkscape:connector-curvature="0"
               d="m 606.60694,682.93575 c -3.77543,3.04895 -4.61533,4.07285 -6.70163,7.44685 -0.75501,1.3022 -2.16496,4.34537 -2.55045,6.38697 -0.38509,2.04118 -0.67362,5.00288 -0.67246,6.5714 0.005,5.3151 1.59763,8.6494 3.33738,8.53319 1.55441,-0.18939 3.53247,-1.91092 6.52992,-5.82084"
               style="stroke:#000000;stroke-width:0.42283505pt"
               id="path3953" />
            <path
               inkscape:connector-curvature="0"
               d="m 609.3256,683.0218 c 3.77543,3.04896 4.61533,4.07286 6.70163,7.44685 0.75501,1.3022 2.16496,4.34537 2.55044,6.38697 0.3851,2.04118 0.67363,5.00289 0.67246,6.57141 -0.005,5.3151 -1.59762,8.64939 -3.33738,8.53319 -1.55441,-0.1894 -3.53246,-1.91092 -6.52991,-5.82085"
               style="stroke:#000000;stroke-width:0.42283505pt"
               id="path3955" />
            <path
               inkscape:connector-curvature="0"
               d="m 574.51485,659.71602 c 5.24106,-0.97552 10.31976,-1.60656 15.56082,-2.23761 6.86206,-1.83648 10.32015,6.48415 8.42893,12.73879 -2.37717,5.56612 -5.72701,10.4437 -9.5632,15.14885 -2.97175,3.5576 -6.512,4.13323 -9.88793,2.92614 -2.72489,-0.80225 -5.24145,-2.58167 -7.94298,-6.71325 -1.18839,-3.55801 -2.2148,-5.3945 -3.72793,-9.81265 -1.18839,-4.0741 0.66,-10.17284 7.13229,-12.05027 z"
               style="stroke:#000000;stroke-width:0.42283505pt"
               id="path3957" />
            <path
               inkscape:connector-curvature="0"
               d="m 641.5203,659.71602 c -5.24106,-0.97552 -10.31976,-1.60656 -15.56082,-2.23761 -6.86206,-1.83648 -10.32015,6.48415 -8.42893,12.73879 2.37717,5.56612 5.72701,10.4437 9.56319,15.14885 2.97176,3.5576 6.51201,4.13323 9.88794,2.92614 2.72489,-0.80225 5.24145,-2.58167 7.94298,-6.71325 1.18839,-3.55801 2.21479,-5.3945 3.72793,-9.81265 1.18839,-4.0741 -0.66,-10.17284 -7.13229,-12.05027 z"
               style="stroke:#000000;stroke-width:0.42283505pt"
               id="path3959" />
            <path
               inkscape:connector-curvature="0"
               d="m 574.41956,707.25917 c 2.21557,5.51814 2.90088,7.61516 4.49852,13.11634 1.36127,5.08187 1.86162,8.18542 2.70269,15.4073"
               style="fill:none;stroke:#000000;stroke-width:2.64271903"
               id="path3961" />
            <path
               inkscape:connector-curvature="0"
               d="m 641.33632,706.95486 c -2.21558,5.51814 -2.90089,7.61515 -4.49852,13.11634 -1.36127,5.08187 -1.86163,8.18541 -2.70269,15.4073"
               style="fill:none;stroke:#000000;stroke-width:2.64271903"
               id="path3963" />
            <path
               inkscape:connector-curvature="0"
               d="m 583.87528,720.16213 c 5.73091,3.73294 15.63792,4.30857 24.51386,4.13903 9.88793,-0.0534 18.35268,-0.81177 23.91148,-4.38218"
               style="fill:none;stroke:#000000;stroke-width:2.11417532"
               id="path3965" />
            <path
               inkscape:connector-curvature="0"
               d="m 585.88098,729.90076 c 6.32277,4.21967 13.75838,5.66868 22.32165,5.32544 8.89423,-0.22992 15.7119,-1.02472 21.80571,-5.44701"
               style="fill:none;stroke:#000000;stroke-width:2.11417532"
               id="path3967" />
            <path
               inkscape:connector-curvature="0"
               d="m 581.29641,735.01282 c 6.76238,8.66263 16.20136,10.16664 26.93464,10.46851 11.49413,0.44538 23.0381,-4.40202 26.01803,-10.4681"
               style="fill:none;stroke:#000000;stroke-width:2.64271903"
               id="path3969" />
            <path
               inkscape:connector-curvature="0"
               d="m 585.79415,722.03294 -0.16198,17.0424"
               style="stroke:#000000;stroke-width:2.11417532"
               id="path3971" />
            <path
               inkscape:connector-curvature="0"
               d="m 591.06208,723.84048 -0.081,18.24743"
               style="stroke:#000000;stroke-width:2.11417532"
               id="path3973" />
            <path
               inkscape:connector-curvature="0"
               d="m 596.89734,724.61502 -0.16198,19.1084"
               style="stroke:#000000;stroke-width:2.11417532"
               id="path3975" />
            <path
               inkscape:connector-curvature="0"
               d="m 602.16566,725.04551 -0.0814,19.36644"
               style="stroke:#000000;stroke-width:2.11417532"
               id="path3977" />
            <path
               inkscape:connector-curvature="0"
               d="m 608.08191,725.21754 v 19.36644"
               style="stroke:#000000;stroke-width:2.11417532"
               id="path3979" />
            <path
               inkscape:connector-curvature="0"
               d="m 613.75519,725.13152 0.081,19.36644"
               style="stroke:#000000;stroke-width:2.11417532"
               id="path3981" />
            <path
               inkscape:connector-curvature="0"
               d="m 618.86104,724.61501 0.16199,19.02238"
               style="stroke:#000000;stroke-width:2.11417532"
               id="path3983" />
            <path
               inkscape:connector-curvature="0"
               d="m 624.7774,723.58244 0.081,18.24742"
               style="stroke:#000000;stroke-width:2.11417532"
               id="path3985" />
            <path
               inkscape:connector-curvature="0"
               d="m 630.12632,721.34441 0.16237,17.21443"
               style="stroke:#000000;stroke-width:2.11417532"
               id="path3987" />
            <path
               inkscape:connector-curvature="0"
               d="m 577.60768,666.50205 c 3.33768,-0.47877 6.57195,-0.78847 9.90963,-1.09818 4.36997,-0.90131 6.5722,3.18229 5.36781,6.25195 -1.51386,2.73173 -3.64715,5.12556 -6.09015,7.43475 -1.89251,1.746 -4.14705,2.02851 -6.29695,1.43609 -1.73529,-0.39373 -3.33793,-1.26703 -5.05834,-3.29473 -0.7568,-1.7462 -1.41046,-2.64751 -2.37407,-4.81586 -0.7568,-1.99948 0.42031,-4.99262 4.54207,-5.91402 z"
               style="fill:#ff0000;stroke:#000000;stroke-width:0.42283505pt"
               id="path3957-4" />
            <path
               inkscape:connector-curvature="0"
               d="m 638.44731,665.79228 c -3.14832,-0.48485 -6.1991,-0.79849 -9.34743,-1.11213 -4.12205,-0.91277 -6.19933,3.22274 -5.06327,6.33141 1.42797,2.76645 3.44024,5.1907 5.74463,7.52924 1.78515,1.76819 3.91178,2.0543 5.93971,1.45434 1.63684,-0.39872 3.14855,-1.28313 4.77137,-3.3366 0.71386,-1.76839 1.33043,-2.68116 2.23937,-4.87706 0.71387,-2.0249 -0.39647,-5.05609 -4.28438,-5.9892 z"
               style="fill:#ff0000;stroke:#000000;stroke-width:0.42283505pt"
               id="path3959-4" />
          </g>
        </g>
        <text
           xml:space="preserve"
           style="font-style:normal;font-weight:normal;line-height:0%;font-family:sans-serif;letter-spacing:0px;word-spacing:0px;fill:#000000;fill-opacity:1;stroke:none"
           x="627.47382"
           y="411.05637"
           id="text4291"
           transform="matrix(0.79654993,0.77273248,-0.61755739,0.65632213,0,0)"><tspan
             sodipodi:role="line"
             id="tspan4293"
             x="627.47382"
             y="411.05637"
             style="font-style:normal;font-variant:normal;font-weight:bold;font-stretch:normal;font-size:136.97743225px;line-height:1.25;font-family:Arial;-inkscape-font-specification:'Arial Bold'">CTF</tspan></text>
      </g>
    </g>
  </g>
</svg>
